<?xml version="1.0" encoding="utf-8"?>
<!-- Generator: Adobe Illustrator 23.0.3, SVG Export Plug-In . SVG Version: 6.00 Build 0)  -->
<svg version="1.1" id="Capa_1" xmlns="http://www.w3.org/2000/svg" xmlns:xlink="http://www.w3.org/1999/xlink" x="0px" y="0px"
	 viewBox="0 0 636 116.2" style="enable-background:new 0 0 636 116.2;" xml:space="preserve">
<style type="text/css">
	.st0{fill:#919295;}
	.st1{fill-rule:evenodd;clip-rule:evenodd;fill:#A32429;}
</style>
<path class="st0" d="M590.5,19.5h7.2v56.8h35.7v6.6h-42.9V19.5z M550.8,19.1h6.7l28.9,63.9h-7.7l-7.4-16.8h-34.5l-7.5,16.8h-7.3
	L550.8,19.1z M568.4,59.7L554,27.4l-14.5,32.3H568.4z M499.9,26.1h-21.3v-6.6h49.7v6.6h-21.3v56.8h-7.2V26.1z M465.5,19.5h7.2v63.4
	h-7.2V19.5z M431.7,84c-5,0-9.5-0.8-13.5-2.5c-4-1.7-7.3-4-10.1-7c-2.8-3-5-6.4-6.4-10.4c-1.5-4-2.2-8.2-2.2-12.7v-0.2
	c0-4.3,0.8-8.5,2.3-12.5c1.5-4,3.7-7.4,6.5-10.5c2.8-3,6.1-5.4,10-7.2c3.9-1.8,8.2-2.7,13-2.7c2.7,0,5.1,0.2,7.3,0.5
	c2.2,0.4,4.3,0.9,6.2,1.6c1.9,0.7,3.7,1.6,5.3,2.7c1.7,1.1,3.3,2.2,4.8,3.6l-4.6,5.4c-1.2-1.1-2.5-2.1-3.8-2.9
	c-1.3-0.9-2.8-1.6-4.3-2.3c-1.5-0.6-3.2-1.1-5.1-1.5c-1.8-0.4-3.9-0.5-6.1-0.5c-3.5,0-6.7,0.7-9.7,2.1c-3,1.4-5.5,3.3-7.6,5.6
	c-2.1,2.4-3.8,5.1-5,8.3c-1.2,3.2-1.8,6.5-1.8,10v0.2c0,3.8,0.6,7.3,1.8,10.5c1.2,3.2,2.9,6,5,8.3c2.2,2.4,4.8,4.2,7.9,5.5
	c3.1,1.3,6.6,2,10.4,2c3.6,0,7-0.6,10.2-1.9c3.2-1.2,5.9-2.7,8.1-4.5V55.5H431v-6.4h26.2v25.3c-3,2.7-6.6,4.9-10.9,6.8
	C442,83.1,437.1,84,431.7,84z M383.8,19.5h7.2v63.4h-7.2V19.5z M320.3,19.5h22c5,0,9.5,0.8,13.6,2.4c4.1,1.6,7.7,3.8,10.7,6.7
	c3,2.8,5.3,6.2,6.9,10c1.6,3.8,2.4,8,2.4,12.5v0.2c0,4.5-0.8,8.6-2.4,12.5c-1.6,3.9-3.9,7.2-6.9,10.1c-3,2.8-6.6,5.1-10.7,6.7
	c-4.1,1.6-8.7,2.4-13.6,2.4h-22V19.5z M342.4,76.3c4,0,7.6-0.6,10.9-1.9c3.3-1.3,6-3,8.3-5.3c2.3-2.2,4-4.9,5.3-7.9
	c1.2-3.1,1.9-6.3,1.9-9.8v-0.2c0-3.5-0.6-6.8-1.9-9.8c-1.2-3-3-5.7-5.3-8c-2.3-2.3-5-4-8.3-5.3c-3.3-1.3-6.9-1.9-10.9-1.9h-14.9
	v50.2H342.4z"/>
<path d="M261.1,19h42.6c3,0,5.4,2.4,5.4,5.4v7.1H275v13h30.1V57H275v13.4h34.7v12.5h-48.5V19z"/>
<path d="M230.2,50.1c3.5,0,6.1-0.8,8-2.5c1.9-1.6,2.8-3.8,2.8-6.6v-0.2c0-3-1-5.3-2.9-6.8c-1.9-1.5-4.7-2.3-8.1-2.3h-14v18.3H230.2z
	 M201.9,19h29.2c8.1,0,14.3,2.2,18.6,6.5c3.6,3.6,5.5,8.5,5.5,14.6v0.2c0,5.2-1.3,9.4-3.8,12.6c-2.5,3.3-5.8,5.6-9.9,7.2l15.6,22.8
	h-16.4L227,62.5h-0.2H216v20.4h-14.1V19z"/>
<rect x="178.7" y="19" width="14.1" height="63.9"/>
<path d="M149.5,56.2L141,35.5l-8.5,20.7H149.5z M138.3,18.6h9.4l27.4,64.3h-14.7l-5.8-14.3h-27l-5.8,14.3h-6.3
	c-2.9-0.1-5.3-2.5-5.3-5.4c0-0.7,0.1-1.4,0.4-2h0L133.3,22l0,0C134.1,19.9,136.1,18.6,138.3,18.6z"/>
<path class="st1" d="M68.8,70.1c-1.9-7.3-7.4-12.6-10.8-8.2c-10.1,13.3,7.3,21.5,10.4,15C69.1,75.3,69.2,71.6,68.8,70.1 M31.6,98.1
	c10.7-30.1,17.1-46,25.9-47.2c3.3-0.5,6.9,0.8,10.9,3.8c5.4,4.4,11.5,11.6,19,21.3c13.2,17.2,12.5-0.7,6.4-13.7
	c-7.9-16.9-23.9-39.9-39.3-51.7c-2.4-1.9-4.7-3.5-7-4.9c-10.3-5.9-16.2,0.5-23,7.6c-2.1,2.2-3.9,4.5-5.6,6.8
	c-6.6,9.2-10.5,19.6-13,29.8c-5.6,23.2-2.2,46.2,7.4,58.9C21.8,120.1,28.7,106.2,31.6,98.1z"/>
<path class="st0" d="M590.5,19.5h7.2v56.8h35.7v6.6h-42.9V19.5z M550.8,19.1h6.7l28.9,63.9h-7.7l-7.4-16.8h-34.5l-7.5,16.8h-7.3
	L550.8,19.1z M568.4,59.7L554,27.4l-14.5,32.3H568.4z M499.9,26.1h-21.3v-6.6h49.7v6.6h-21.3v56.8h-7.2V26.1z M465.5,19.5h7.2v63.4
	h-7.2V19.5z M431.7,84c-5,0-9.5-0.8-13.5-2.5c-4-1.7-7.3-4-10.1-7c-2.8-3-5-6.4-6.4-10.4c-1.5-4-2.2-8.2-2.2-12.7v-0.2
	c0-4.3,0.8-8.5,2.3-12.5c1.5-4,3.7-7.4,6.5-10.5c2.8-3,6.1-5.4,10-7.2c3.9-1.8,8.2-2.7,13-2.7c2.7,0,5.1,0.2,7.3,0.5
	c2.2,0.4,4.3,0.9,6.2,1.6c1.9,0.7,3.7,1.6,5.3,2.7c1.7,1.1,3.3,2.2,4.8,3.6l-4.6,5.4c-1.2-1.1-2.5-2.1-3.8-2.9
	c-1.3-0.9-2.8-1.6-4.3-2.3c-1.5-0.6-3.2-1.1-5.1-1.5c-1.8-0.4-3.9-0.5-6.1-0.5c-3.5,0-6.7,0.7-9.7,2.1c-3,1.4-5.5,3.3-7.6,5.6
	c-2.1,2.4-3.8,5.1-5,8.3c-1.2,3.2-1.8,6.5-1.8,10v0.2c0,3.8,0.6,7.3,1.8,10.5c1.2,3.2,2.9,6,5,8.3c2.2,2.4,4.8,4.2,7.9,5.5
	c3.1,1.3,6.6,2,10.4,2c3.6,0,7-0.6,10.2-1.9c3.2-1.2,5.9-2.7,8.1-4.5V55.5H431v-6.4h26.2v25.3c-3,2.7-6.6,4.9-10.9,6.8
	C442,83.1,437.1,84,431.7,84z M383.8,19.5h7.2v63.4h-7.2V19.5z M320.3,19.5h22c5,0,9.5,0.8,13.6,2.4c4.1,1.6,7.7,3.8,10.7,6.7
	c3,2.8,5.3,6.2,6.9,10c1.6,3.8,2.4,8,2.4,12.5v0.2c0,4.5-0.8,8.6-2.4,12.5c-1.6,3.9-3.9,7.2-6.9,10.1c-3,2.8-6.6,5.1-10.7,6.7
	c-4.1,1.6-8.7,2.4-13.6,2.4h-22V19.5z M342.4,76.3c4,0,7.6-0.6,10.9-1.9c3.3-1.3,6-3,8.3-5.3c2.3-2.2,4-4.9,5.3-7.9
	c1.2-3.1,1.9-6.3,1.9-9.8v-0.2c0-3.5-0.6-6.8-1.9-9.8c-1.2-3-3-5.7-5.3-8c-2.3-2.3-5-4-8.3-5.3c-3.3-1.3-6.9-1.9-10.9-1.9h-14.9
	v50.2H342.4z"/>
<path d="M261.1,19h42.6c3,0,5.4,2.4,5.4,5.4v7.1H275v13h30.1V57H275v13.4h34.7v12.5h-48.5V19z"/>
<path d="M230.2,50.1c3.5,0,6.1-0.8,8-2.5c1.9-1.6,2.8-3.8,2.8-6.6v-0.2c0-3-1-5.3-2.9-6.8c-1.9-1.5-4.7-2.3-8.1-2.3h-14v18.3H230.2z
	 M201.9,19h29.2c8.1,0,14.3,2.2,18.6,6.5c3.6,3.6,5.5,8.5,5.5,14.6v0.2c0,5.2-1.3,9.4-3.8,12.6c-2.5,3.3-5.8,5.6-9.9,7.2l15.6,22.8
	h-16.4L227,62.5h-0.2H216v20.4h-14.1V19z"/>
<rect x="178.7" y="19" width="14.1" height="63.9"/>
<path d="M149.5,56.2L141,35.5l-8.5,20.7H149.5z M138.3,18.6h9.4l27.4,64.3h-14.7l-5.8-14.3h-27l-5.8,14.3h-6.3
	c-2.9-0.1-5.3-2.5-5.3-5.4c0-0.7,0.1-1.4,0.4-2h0L133.3,22l0,0C134.1,19.9,136.1,18.6,138.3,18.6z"/>
<path class="st1" d="M68.8,70.1c-1.9-7.3-7.4-12.6-10.8-8.2c-10.1,13.3,7.3,21.5,10.4,15C69.1,75.3,69.2,71.6,68.8,70.1 M31.6,98.1
	c10.7-30.1,17.1-46,25.9-47.2c3.3-0.5,6.9,0.8,10.9,3.8c5.4,4.4,11.5,11.6,19,21.3c13.2,17.2,12.5-0.7,6.4-13.7
	c-7.9-16.9-23.9-39.9-39.3-51.7c-2.4-1.9-4.7-3.5-7-4.9c-10.3-5.9-16.2,0.5-23,7.6c-2.1,2.2-3.9,4.5-5.6,6.8
	c-6.6,9.2-10.5,19.6-13,29.8c-5.6,23.2-2.2,46.2,7.4,58.9C21.8,120.1,28.7,106.2,31.6,98.1z"/>
</svg>
